# xmcd
#
# Track frame offsets:
#  150
#  15626
#  32583
#  51045
#  65626
#  81077
#  96318
#  114647
#  128912
#  144388
#  157596
#  174457
#
# Disc length: 2550 seconds
#
# Revision: 0
# Processed by: cddbd v1.5.1PL2 Copyright (c) Steve Scherf et al.
# Submitted via: Collectorz.com_Music_Collector 6.10
#
DISCID=9509f40c
DTITLE=Darryl Worly - I Miss My Friend
DYEAR=2002
DGENRE=
TTITLE0=Darryl Worley - Tennessee River Run
TTITLE1=Darryl Worley - I Wouldn't Mind The Shackles
TTITLE2=Darryl Worley - I Miss My Friend
TTITLE3=Darryl Worley - Callin' Caroline
TTITLE4=Darryl Worley - Family Tree
TTITLE5=Darryl Worley - Back Where I Belong
TTITLE6=Darryl Worley - The Least That You Can Do
TTITLE7=Darryl Worley - I Built This Wall
TTITLE8=Darryl Worley - Opportunity Of A Lifetime
TTITLE9=Darryl Worley - Spread A Little Love Around
TTITLE10=Darryl Worley - Pow
TTITLE11=Darryl Worley - Where You Think You're Goin'?
EXTD=
EXTT0=
EXTT1=
EXTT2=
EXTT3=
EXTT4=
EXTT5=
EXTT6=
EXTT7=
EXTT8=
EXTT9=
EXTT10=
EXTT11=
PLAYORDER=
